<?xml version="1.0" encoding="UTF-8" standalone="no"?> <svg xmlns="http://www.w3.org/2000/svg" viewBox="0 0 64 64"><title>1</title><g id="Layer_9" data-name="Layer 9"><path d="M47,8H37A5,5,0,0,0,27,8H17a6,6,0,0,0-6,6V55a6,6,0,0,0,6,6H47a6,6,0,0,0,6-6V14A6,6,0,0,0,47,8ZM22.57,13.82A2.78,2.78,0,0,0,25.28,16H38.72a2.78,2.78,0,0,0,2.71-2.18h4.4A1.18,1.18,0,0,1,47,15V54a1.18,1.18,0,0,1-1.17,1.18H18.17A1.18,1.18,0,0,1,17,54V15a1.18,1.18,0,0,1,1.17-1.18ZM28.13,10l.13,0h.14l.06,0a1,1,0,0,0,.18-.09.68.68,0,0,0,.27-.25A1,1,0,0,0,29,9.44a1,1,0,0,0,.06-.17,1,1,0,0,0,0-.2s0,0,0-.06a.94.94,0,0,0,0-.13.94.94,0,0,0,0-.14A2.66,2.66,0,0,1,29,8a3,3,0,0,1,6,0,2.66,2.66,0,0,1-.09.73.94.94,0,0,0,0,.14.94.94,0,0,0,0,.13s0,0,0,.06a1,1,0,0,0,0,.2.86.86,0,0,0,.44.58,1,1,0,0,0,.18.09l.06,0a1,1,0,0,0,.27,0H39.5v3.22a.78.78,0,0,1-.78.78H25.28a.78.78,0,0,1-.78-.78V10ZM51,55a4,4,0,0,1-4,4H17a4,4,0,0,1-4-4V14a4,4,0,0,1,4-4h5.5v1.82H18.17A3.18,3.18,0,0,0,15,15V54a3.18,3.18,0,0,0,3.17,3.18H45.83A3.18,3.18,0,0,0,49,54V15a3.18,3.18,0,0,0-3.17-3.18H41.5V10H47a4,4,0,0,1,4,4Z"/><path d="M22.5,37.5A3.5,3.5,0,1,0,19,34,3.5,3.5,0,0,0,22.5,37.5Zm0-5A1.5,1.5,0,1,1,21,34,1.5,1.5,0,0,1,22.5,32.5Z"/><path d="M29,35H44a1,1,0,0,0,0-2H29a1,1,0,0,0,0,2Z"/><path d="M22.5,25.5A3.5,3.5,0,1,0,19,22,3.5,3.5,0,0,0,22.5,25.5Zm0-5A1.5,1.5,0,1,1,21,22,1.5,1.5,0,0,1,22.5,20.5Z"/><path d="M29,23H44a1,1,0,0,0,0-2H29a1,1,0,0,0,0,2Z"/><path d="M44,25H37a1,1,0,0,0,0,2h7a1,1,0,0,0,0-2Z"/><path d="M44,37H37a1,1,0,0,0,0,2h7a1,1,0,0,0,0-2Z"/><path d="M44,49H37a1,1,0,0,0,0,2h7a1,1,0,0,0,0-2Z"/><path d="M22.5,49.5A3.5,3.5,0,1,0,19,46,3.5,3.5,0,0,0,22.5,49.5Zm0-5A1.5,1.5,0,1,1,21,46,1.5,1.5,0,0,1,22.5,44.5Z"/><path d="M29,47H44a1,1,0,0,0,0-2H29a1,1,0,0,0,0,2Z"/></g></svg>