<?xml version="1.0" encoding="UTF-8" standalone="no"?> <svg xmlns="http://www.w3.org/2000/svg" viewBox="0 0 32 32"><title>International</title><g id="_21-30" data-name="21-30"><g id="Global"><path d="M16,2A14,14,0,1,0,30,16,14.015,14.015,0,0,0,16,2Zm0,26c-1.253,0-2.879-2.573-3.611-7h7.223C18.879,25.427,17.253,28,16,28Zm-3.861-9c-.087-.941-.139-1.937-.139-3s.052-2.059.139-3h7.722c.087.941.139,1.937.139,3s-.052,2.059-.139,3ZM4,16a11.926,11.926,0,0,1,.395-3h5.746c-.09.994-.141,2-.141,3s.051,2.006.141,3H4.395A11.926,11.926,0,0,1,4,16ZM16,4c1.253,0,2.879,2.573,3.612,7H12.389C13.121,6.573,14.747,4,16,4Zm5.859,9h5.746a11.59,11.59,0,0,1,0,6H21.859c.09-.994.141-2,.141-3S21.949,13.994,21.859,13ZM26.9,11H21.618a18.664,18.664,0,0,0-2.075-6.465A12.048,12.048,0,0,1,26.9,11ZM12.457,4.535A18.664,18.664,0,0,0,10.382,11H5.105A12.048,12.048,0,0,1,12.457,4.535ZM5.105,21h5.277a18.664,18.664,0,0,0,2.075,6.465A12.048,12.048,0,0,1,5.105,21Zm14.438,6.465A18.664,18.664,0,0,0,21.618,21H26.9A12.048,12.048,0,0,1,19.543,27.465Z"/></g></g></svg>