<svg width="18" height="18" viewBox="0 0 18 18" fill="none" xmlns="http://www.w3.org/2000/svg">
<path d="M17.1299 16.1715L14.2655 13.3709L14.1983 13.2688C14.0735 13.1445 13.9028 13.0745 13.7246 13.0745C13.5465 13.0745 13.3758 13.1445 13.2509 13.2688C10.8166 15.5021 7.06545 15.6235 4.48533 13.5524C1.90521 11.4814 1.29672 7.86049 3.0634 5.09116C4.83008 2.32183 8.42372 1.26339 11.461 2.6178C14.4983 3.9722 16.0368 7.31917 15.0562 10.439C14.9855 10.6644 15.0433 10.9095 15.2076 11.082C15.3719 11.2545 15.6179 11.3282 15.8529 11.2753C16.0878 11.2224 16.2761 11.0509 16.3467 10.8255C17.519 7.12322 15.7484 3.13898 12.1804 1.45023C8.6124 -0.238516 4.31769 0.875036 2.07454 4.07053C-0.168616 7.26602 0.312975 11.5845 3.20777 14.2323C6.10256 16.8801 10.5418 17.0626 13.6538 14.6618L16.19 17.1414C16.452 17.3964 16.8755 17.3964 17.1374 17.1414C17.3991 16.8829 17.3991 16.4665 17.1374 16.2079L17.1299 16.1715Z" fill="#171716"/>
</svg>
