<?xml version="1.0" encoding="UTF-8" standalone="no"?> <svg width="64" height="64" viewBox="0 0 64 64" fill="none" xmlns="http://www.w3.org/2000/svg">
<path d="M60 23.1799H57.46V12.1799C57.468 10.722 56.8979 9.32033 55.8745 8.28195C54.8511 7.24356 53.4579 6.6531 52 6.63989H8C6.54212 6.64254 5.14471 7.22285 4.11383 8.25373C3.08295 9.2846 2.50264 10.682 2.5 12.1399V51.8599C2.50264 53.3178 3.08295 54.7152 4.11383 55.7461C5.14471 56.7769 6.54212 57.3573 8 57.3599H52C53.4579 57.3573 54.8553 56.7769 55.8862 55.7461C56.917 54.7152 57.4974 53.3178 57.5 51.8599V40.8599H60C60.3978 40.8599 60.7794 40.7019 61.0607 40.4206C61.342 40.1393 61.5 39.7577 61.5 39.3599V24.6799C61.5 24.2821 61.342 23.9005 61.0607 23.6192C60.7794 23.3379 60.3978 23.1799 60 23.1799ZM8 9.63989H52C52.663 9.63989 53.2989 9.90329 53.7678 10.3721C54.2366 10.841 54.5 11.4769 54.5 12.1399V14.7899H5.5V12.1399C5.5 11.4769 5.76339 10.841 6.23223 10.3721C6.70107 9.90329 7.33696 9.63989 8 9.63989V9.63989ZM54.46 51.8599C54.46 52.5229 54.1966 53.1588 53.7278 53.6277C53.2589 54.0965 52.623 54.3599 51.96 54.3599H8C7.33696 54.3599 6.70107 54.0965 6.23223 53.6277C5.76339 53.1588 5.5 52.5229 5.5 51.8599V17.7899H54.5V23.1799H44.75C42.4108 23.1799 40.1674 24.1091 38.5133 25.7632C36.8592 27.4173 35.93 29.6607 35.93 31.9999C35.93 34.3391 36.8592 36.5825 38.5133 38.2366C40.1674 39.8906 42.4108 40.8199 44.75 40.8199H54.46V51.8599ZM58.46 37.8599H44.75C43.2064 37.8599 41.7261 37.2467 40.6346 36.1553C39.5432 35.0638 38.93 33.5835 38.93 32.0399C38.93 30.4963 39.5432 29.016 40.6346 27.9245C41.7261 26.8331 43.2064 26.2199 44.75 26.2199H58.5L58.46 37.8599Z" fill="black"/>
</svg>
